<?xml version="1.0" encoding="utf-8"?>
<!-- Generator: Adobe Illustrator 18.0.0, SVG Export Plug-In . SVG Version: 6.00 Build 0)  -->
<!DOCTYPE svg PUBLIC "-//W3C//DTD SVG 1.1//EN" "http://www.w3.org/Graphics/SVG/1.1/DTD/svg11.dtd">
<svg version="1.1" id="图层_1" xmlns="http://www.w3.org/2000/svg" xmlns:xlink="http://www.w3.org/1999/xlink" x="0px" y="0px"
	 viewBox="0 0 90 18" enable-background="new 0 0 90 18" xml:space="preserve">
<g opacity="0.5">
	<g>
		<g>
			<g>
				<defs>
					<rect id="SVGID_1_" width="45" height="20"/>
				</defs>
				<clipPath id="SVGID_2_">
					<use xlink:href="#SVGID_1_"  overflow="visible"/>
				</clipPath>
				<g clip-path="url(#SVGID_2_)">
					<g>
						<g>
							
								<linearGradient id="SVGID_3_" gradientUnits="userSpaceOnUse" x1="748.294" y1="1675.442" x2="748.294" y2="1658.442" gradientTransform="matrix(1 0 0 1 -721 -1658)">
								<stop  offset="0" style="stop-color:#5AAEE1"/>
								<stop  offset="0.7127" style="stop-color:#0064B1"/>
								<stop  offset="1" style="stop-color:#003993"/>
							</linearGradient>
							<path fill="url(#SVGID_3_)" d="M53.8,8.9c0,4.7-3.8,8.5-8.4,8.5H9.2c-4.6-0.3-8.4-3.8-8.4-8.5l0,0c0-4.7,3.8-8.5,8.4-8.5
								h36.1C50,0.4,53.8,4.2,53.8,8.9L53.8,8.9z"/>
							<path fill="none" stroke="#111111" stroke-miterlimit="10" d="M53.8,8.9c0,4.7-3.8,8.5-8.4,8.5H9.2c-4.6-0.3-8.4-3.8-8.4-8.5
								l0,0c0-4.7,3.8-8.5,8.4-8.5h36.1C50,0.4,53.8,4.2,53.8,8.9L53.8,8.9z"/>
						</g>
						
							<linearGradient id="SVGID_4_" gradientUnits="userSpaceOnUse" x1="748.5945" y1="1675" x2="748.5945" y2="1659" gradientTransform="matrix(1 0 0 1 -721 -1658)">
							<stop  offset="0" style="stop-color:#000000"/>
							<stop  offset="1" style="stop-color:#000000"/>
						</linearGradient>
						<path opacity="0.3" fill="none" stroke="url(#SVGID_4_)" stroke-miterlimit="10" enable-background="new    " d="M9.4,16.5
							C5.3,16.5,2,13.1,2,9s3.3-7.5,7.4-7.5h36.4c4.1,0,7.4,3.4,7.4,7.5c0,4.1-3.3,7.5-7.4,7.5H9.4z"/>
						<path opacity="0.1" fill="none" stroke="#000000" stroke-miterlimit="10" enable-background="new    " d="M9.4,15.5
							c-3.5,0-6.4-3-6.4-6.5s2.9-6.5,6.4-6.5h36.4c3.5,0,6.4,3,6.4,6.5s-2.9,6.5-6.4,6.5H9.4z"/>
					</g>
				</g>
			</g>
		</g>
	</g>
	<g>
		<g>
			<g>
				<defs>
					<rect id="SVGID_5_" x="45" y="-1" width="45" height="20"/>
				</defs>
				<clipPath id="SVGID_6_">
					<use xlink:href="#SVGID_5_"  overflow="visible"/>
				</clipPath>
				<g clip-path="url(#SVGID_6_)">
					<g>
						
							<linearGradient id="SVGID_7_" gradientUnits="userSpaceOnUse" x1="783.347" y1="1675.1028" x2="783.347" y2="1658.1028" gradientTransform="matrix(1 0 0 1 -721 -1658)">
							<stop  offset="1.580000e-02" style="stop-color:#646464"/>
							<stop  offset="1" style="stop-color:#323232"/>
						</linearGradient>
						<path fill="url(#SVGID_7_)" d="M35.8,9c0,4.7,3.7,8.5,8.4,8.5h36.3c4.6,0,8.4-3.8,8.4-8.5l0,0c0-4.7-3.7-8.5-8.4-8.5H44.2
							C39.6,0.5,35.8,4.3,35.8,9L35.8,9z"/>
						<path fill="none" stroke="#111111" stroke-miterlimit="10" d="M35.8,9c0,4.7,3.7,8.5,8.4,8.5h36.3c4.6,0,8.4-3.8,8.4-8.5l0,0
							c0-4.7-3.7-8.5-8.4-8.5H44.2C39.6,0.5,35.8,4.3,35.8,9L35.8,9z"/>
					</g>
					
						<linearGradient id="SVGID_8_" gradientUnits="userSpaceOnUse" x1="36.043" y1="8.963" x2="88.652" y2="8.963" gradientTransform="matrix(1 0 0 -1 0 18)">
						<stop  offset="0" style="stop-color:#000000"/>
						<stop  offset="1" style="stop-color:#000000"/>
					</linearGradient>
					<path opacity="0.3" fill="none" stroke="url(#SVGID_8_)" stroke-miterlimit="10" enable-background="new    " d="M80.7,16.5
						c4.1,0,7.4-3.4,7.4-7.5s-3.3-7.5-7.4-7.5H44c-4.1,0-7.4,3.4-7.4,7.5c0,4.1,3.3,7.5,7.4,7.5H80.7z"/>
					<path opacity="0.1" fill="none" stroke="#000000" stroke-miterlimit="10" enable-background="new    " d="M80.7,15.5
						c3.5,0,6.4-3,6.4-6.5s-2.9-6.5-6.4-6.5H44c-3.5,0-6.4,3-6.4,6.5s2.9,6.5,6.4,6.5H80.7z"/>
				</g>
			</g>
		</g>
	</g>
	<g>
		<path opacity="0.2" enable-background="new    " d="M37,9c0-5,4-9,9-9s9,4,9,9s-4,9-9,9S37,13.9,37,9z M38.1,9
			c0,4.4,3.6,7.9,7.9,7.9s7.9-3.6,7.9-7.9S50.4,1,46,1S38.1,4.6,38.1,9z"/>
		<g>
			<path opacity="0.2" enable-background="new    " d="M44,18c-5,0-9-4-9-9s4-9,9-9s9,4,9,9S49,18,44,18z M44,1
				c-4.4,0-7.9,3.6-7.9,7.9s3.6,7.9,7.9,7.9s7.9-3.6,7.9-7.9S48.4,1,44,1z"/>
			<g>
				<path opacity="0.8" enable-background="new    " d="M45,18c-5,0-9-4-9-9s4-9,9-9s9,4,9,9S50,18,45,18z M45,1
					c-4.4,0-7.9,3.6-7.9,7.9s3.6,7.9,7.9,7.9s7.9-3.6,7.9-7.9S49.4,1,45,1z"/>
				<g>
					
						<linearGradient id="SVGID_9_" gradientUnits="userSpaceOnUse" x1="766" y1="1674.9821" x2="766" y2="1658.9821" gradientTransform="matrix(1 0 0 1 -721 -1658)">
						<stop  offset="0" style="stop-color:#464342"/>
						<stop  offset="1" style="stop-color:#1E1E1E"/>
					</linearGradient>
					<circle fill="url(#SVGID_9_)" cx="45" cy="9" r="8"/>
					
						<linearGradient id="SVGID_10_" gradientUnits="userSpaceOnUse" x1="766" y1="1674.9821" x2="766" y2="1658.9821" gradientTransform="matrix(1 0 0 1 -721 -1658)">
						<stop  offset="0" style="stop-color:#FFFFFF;stop-opacity:0.5"/>
						<stop  offset="1" style="stop-color:#FFFFFF"/>
					</linearGradient>
					
						<ellipse opacity="0.1" fill="none" stroke="url(#SVGID_10_)" stroke-miterlimit="10" enable-background="new    " cx="45" cy="9" rx="7.5" ry="7.5"/>
				</g>
			</g>
		</g>
	</g>
</g>
</svg>
